<?xml version="1.0" standalone="no"?>
<!DOCTYPE svg PUBLIC "-//W3C//DTD SVG 20010904//EN"
 "http://www.w3.org/TR/2001/REC-SVG-20010904/DTD/svg10.dtd">
<svg version="1.0" xmlns="http://www.w3.org/2000/svg"
 width="192.000000pt" height="192.000000pt" viewBox="0 0 192.000000 192.000000"
 preserveAspectRatio="xMidYMid meet">
<metadata>
Created by potrace 1.14, written by Peter Selinger 2001-2017
</metadata>
<g transform="translate(0.000000,192.000000) scale(0.100000,-0.100000)"
fill="#000000" stroke="none">
<path d="M1213 1405 c-171 -48 -249 -199 -177 -344 35 -69 95 -113 204 -146
141 -44 170 -56 200 -82 58 -48 49 -134 -19 -175 -49 -31 -167 -32 -226 -3
-36 18 -41 25 -48 70 -15 100 -11 95 -77 95 l-60 0 0 -110 0 -110 38 -23 c144
-91 356 -100 475 -19 67 45 100 101 105 178 6 84 -15 140 -73 193 -55 50 -104
75 -202 102 -127 35 -193 80 -193 131 0 35 29 83 61 102 42 25 146 24 197 -1
35 -17 38 -22 46 -80 l9 -63 63 0 64 0 0 100 0 100 -47 31 c-93 58 -241 82
-340 54z"/>
<path d="M580 1346 l0 -55 55 -6 55 -7 0 -262 c0 -143 -5 -277 -10 -297 -16
-59 -52 -84 -117 -83 -49 0 -59 4 -84 32 -20 22 -30 47 -35 82 l-7 51 -71 -3
-71 -3 1 -40 c2 -75 23 -125 73 -175 127 -127 362 -99 444 53 21 40 22 54 25
344 l3 301 47 9 47 8 3 53 3 52 -180 0 -181 0 0 -54z"/>
</g>
</svg>
